<?xml version="1.0" encoding="UTF-8"?> <svg xmlns="http://www.w3.org/2000/svg" width="402" height="245" viewBox="0 0 402 245" fill="none"><g clip-path="url(#clip0_1851_1072)"><path d="M120.392 106.907H106V143.69H113.377V132.619H120.392C127.891 132.619 133.333 127.235 133.333 119.793C133.333 112.413 127.891 106.907 120.392 106.907ZM120.392 125.238H113.377V114.288H120.392C123.899 114.288 125.955 116.587 125.955 119.793C125.955 122.939 123.899 125.238 120.392 125.238Z" fill="#1B0757"></path><path d="M174.514 143.69H198.279V136.37H181.891V128.989H198.279V121.608H181.891V114.288H198.279V106.907H174.514V143.69Z" fill="#1B0757"></path><path d="M254.638 106.907H247.26V143.69H254.638V106.907Z" fill="#1B0757"></path><path d="M288.623 106.907V131.046L268.788 106.907H262.378V143.69H269.756V119.491L289.59 143.69H296V106.907H288.623Z" fill="#1B0757"></path><path d="M240.79 125.057C240.79 114.53 232.263 106 221.741 106C211.22 106 202.693 114.53 202.693 125.057C202.693 135.583 211.22 144.113 221.741 144.113C225.128 144.113 228.272 143.206 231.054 141.694L235.892 146.533L241.032 141.391L236.617 136.975C239.218 133.708 240.79 129.594 240.79 125.057ZM221.741 136.612C215.392 136.612 210.192 131.409 210.192 125.057C210.192 118.704 215.392 113.502 221.741 113.502C228.091 113.502 233.291 118.704 233.291 125.057C233.291 127.477 232.505 129.776 231.235 131.651L226.337 126.751L221.197 131.893L225.309 136.007C224.221 136.43 223.011 136.612 221.741 136.612Z" fill="#1B0757"></path><path d="M167.499 119.733C167.499 112.352 162.117 106.907 154.498 106.907H138.412V143.69H145.79V132.619H154.377L161.331 143.69H169.857L161.633 130.683C165.261 128.445 167.499 124.452 167.499 119.733ZM159.819 121.729C159.759 121.85 159.759 121.971 159.698 122.092C159.456 122.697 159.154 123.242 158.67 123.665C158.368 123.968 158.065 124.21 157.763 124.391C156.916 124.936 155.828 125.178 154.558 125.178L149.841 125.238H145.85V125.178V114.288H154.558C158.126 114.288 160.182 116.587 160.182 119.733C160.121 120.459 160.001 121.124 159.819 121.729Z" fill="#1B0757"></path></g><defs><clipPath id="clip0_1851_1072"><rect width="190" height="40.5333" fill="white" transform="translate(106 106)"></rect></clipPath></defs></svg> 